<svg width="176" height="55" viewBox="0 0 176 55" fill="none" xmlns="http://www.w3.org/2000/svg">
<g filter="url(#filter0_d_29_737)">
<path d="M46.325 46V13.829H45.53L46.06 8.9H54.328L56.872 28.881L59.469 8.9H67.578V46H62.543V17.168L58.621 40.7H55.176L51.36 17.804V46H46.325ZM83.4933 41.283C83.4933 42.767 83.034 43.9683 82.1153 44.887C81.1967 45.7703 79.9953 46.212 78.5113 46.212H74.6953C73.2113 46.212 72.01 45.7703 71.0913 44.887C70.1727 43.9683 69.7133 42.767 69.7133 41.283V13.617C69.7133 12.133 70.1727 10.9493 71.0913 10.066C72.01 9.14733 73.2113 8.688 74.6953 8.688H78.5113C79.9953 8.688 81.1967 9.14733 82.1153 10.066C83.034 10.9493 83.4933 12.133 83.4933 13.617V41.283ZM75.0133 13.617C74.8367 13.617 74.7483 13.7053 74.7483 13.882V41.018C74.7483 41.1947 74.8367 41.283 75.0133 41.283H78.1933C78.37 41.283 78.4583 41.1947 78.4583 41.018V13.882C78.4583 13.7053 78.37 13.617 78.1933 13.617H75.0133ZM95.3955 8.9H100.431L97.1445 46H88.3465L85.0605 8.9H90.0955L92.7455 38.209L95.3955 8.9ZM102.275 46V13.829H101.48L102.01 8.9H107.31V46H102.275ZM121.96 41.071L121.536 46H109.929V13.829H109.134L109.664 8.9H121.96L121.43 13.829H114.964V24.959H120.9L120.37 29.888H114.964V41.071H121.96ZM124.059 46.371V13.829H123.264L123.794 8.9H132.168C133.652 8.9 134.853 9.35933 135.772 10.278C136.691 11.1613 137.15 12.345 137.15 13.829V24.959C137.15 25.4537 137.079 25.9307 136.938 26.39C137.786 27.3087 138.21 28.4747 138.21 29.888V41.442C138.21 42.926 137.645 44.1273 136.514 45.046C135.419 45.9293 134.129 46.371 132.645 46.371H124.059ZM131.85 13.829H129.094V24.959H131.85C132.027 24.959 132.115 24.8707 132.115 24.694V14.094C132.115 13.9173 132.027 13.829 131.85 13.829ZM132.91 29.888H129.094V41.442H132.91C133.087 41.442 133.175 41.3537 133.175 41.177V30.153C133.175 29.9763 133.087 29.888 132.91 29.888ZM154.091 41.283C154.091 42.767 153.632 43.9683 152.713 44.887C151.794 45.7703 150.593 46.212 149.109 46.212H145.293C143.809 46.212 142.608 45.7703 141.689 44.887C140.77 43.9683 140.311 42.767 140.311 41.283V13.617C140.311 12.133 140.77 10.9493 141.689 10.066C142.608 9.14733 143.809 8.688 145.293 8.688H149.109C150.593 8.688 151.794 9.14733 152.713 10.066C153.632 10.9493 154.091 12.133 154.091 13.617V41.283ZM145.611 13.617C145.434 13.617 145.346 13.7053 145.346 13.882V41.018C145.346 41.1947 145.434 41.283 145.611 41.283H148.791C148.968 41.283 149.056 41.1947 149.056 41.018V13.882C149.056 13.7053 148.968 13.617 148.791 13.617H145.611ZM155.165 46L160.147 27.45L155.165 8.9H160.465L163.274 21.779L166.136 8.9H171.436L166.401 27.45L171.436 46H166.136L163.274 33.121L160.465 46H155.165Z" fill="white"/>
</g>
<path d="M37.1784 40.2628H29.329C35.1357 32.3564 34.8969 20.3688 28.6101 12.8722C25.4439 9.0967 21.2341 7 16.7562 7C12.2784 7 8.06853 9.0708 4.90232 12.8465C-1.63411 20.6407 -1.63411 33.3186 4.90232 41.1128C8.06853 44.8883 12.2784 47 16.7562 47C17.1115 47 17.4649 46.9916 17.8165 46.9916H37.1786C38.7368 46.9916 40 45.4853 40 43.6272C40 41.769 38.7367 40.2628 37.1784 40.2628ZM6.85475 32.0884C4.48573 32.0884 2.56518 29.7983 2.56518 26.9733C2.56518 24.1484 4.48573 21.8583 6.85475 21.8583C9.22377 21.8583 11.1443 24.1484 11.1443 26.9733C11.1443 29.7983 9.22391 32.0884 6.85475 32.0884ZM16.756 43.8952C14.387 43.8952 12.4664 41.605 12.4664 38.7801C12.4664 35.9551 14.387 33.665 16.756 33.665C19.125 33.665 21.0456 35.9551 21.0456 38.7801C21.0456 41.605 19.125 43.8952 16.756 43.8952ZM15.5379 25.5208C16.2106 24.7185 17.3013 24.7185 17.974 25.5208C18.6468 26.323 18.6468 27.6235 17.974 28.4258C17.3013 29.228 16.2106 29.228 15.5379 28.4258C14.8652 27.6235 14.8652 26.323 15.5379 25.5208ZM16.756 20.2817C14.387 20.2817 12.4664 17.9915 12.4664 15.1666C12.4664 12.3415 14.387 10.0515 16.756 10.0515C19.125 10.0515 21.0456 12.3417 21.0456 15.1666C21.0456 17.9917 19.125 20.2817 16.756 20.2817ZM22.3676 26.9733C22.3676 24.1482 24.2881 21.8583 26.6571 21.8583C29.0263 21.8583 30.9467 24.1484 30.9467 26.9733C30.9467 29.7983 29.0262 32.0884 26.6571 32.0884C24.2881 32.0884 22.3676 29.7983 22.3676 26.9733Z" fill="white"/>
<defs>
<filter id="filter0_d_29_737" x="41.53" y="8.68799" width="133.906" height="45.683" filterUnits="userSpaceOnUse" color-interpolation-filters="sRGB">
<feFlood flood-opacity="0" result="BackgroundImageFix"/>
<feColorMatrix in="SourceAlpha" type="matrix" values="0 0 0 0 0 0 0 0 0 0 0 0 0 0 0 0 0 0 127 0" result="hardAlpha"/>
<feOffset dy="4"/>
<feGaussianBlur stdDeviation="2"/>
<feComposite in2="hardAlpha" operator="out"/>
<feColorMatrix type="matrix" values="0 0 0 0 0 0 0 0 0 0 0 0 0 0 0 0 0 0 0.25 0"/>
<feBlend mode="normal" in2="BackgroundImageFix" result="effect1_dropShadow_29_737"/>
<feBlend mode="normal" in="SourceGraphic" in2="effect1_dropShadow_29_737" result="shape"/>
</filter>
</defs>
</svg>
