<svg width="20" height="20" viewBox="0 0 20 20" fill="rgba(0, 0, 0, 0.8)" xmlns="http://www.w3.org/2000/svg">
<g id="Group">
<g id="Group_2">
<path id="Vector" d="M0 8.32275C0 12.9142 3.73464 16.6455 8.32105 16.6455C10.4341 16.6455 12.3669 15.8509 13.837 14.5484L19.14 19.8526C19.2383 19.9509 19.3653 20 19.4963 20C19.6274 20 19.7543 19.9509 19.8526 19.8526C20.0491 19.6559 20.0491 19.3406 19.8526 19.144L14.5455 13.8399C15.8477 12.3694 16.6421 10.4403 16.6421 8.32275C16.6421 3.73131 12.9075 0 8.32105 0C3.73464 0 0 3.73131 0 8.32275ZM15.6388 8.32275C15.6388 12.3572 12.3546 15.642 8.32105 15.642C4.28747 15.642 1.00328 12.3572 1.00328 8.32275C1.00328 4.28835 4.28747 1.00348 8.32105 1.00348C12.3546 1.00348 15.6388 4.28425 15.6388 8.32275Z" fill="black" fill-opacity="0.5"/>
</g>
</g>
</svg>
