<svg width="22" height="22" viewBox="0 0 22 22" fill="none" xmlns="http://www.w3.org/2000/svg">
<g id="SVGRepo_iconCarrier">
<path id="Vector" d="M10.1737 2.08049C10.4355 1.46458 10.5664 1.15663 10.7487 1.06179C10.9071 0.979402 11.093 0.979402 11.2513 1.06179C11.4336 1.15663 11.5646 1.46458 11.8264 2.08049L13.9117 6.9863C13.9892 7.16838 14.0279 7.25941 14.0878 7.32913C14.1407 7.39082 14.2055 7.44016 14.2778 7.47394C14.3596 7.51212 14.4541 7.52258 14.6432 7.5435L19.7371 8.10727C20.3766 8.17804 20.6963 8.21342 20.8387 8.36591C20.9623 8.49836 21.0197 8.68383 20.9939 8.86721C20.9643 9.07829 20.7255 9.30396 20.2478 9.75542L16.4427 13.3512C16.3015 13.4846 16.2308 13.5513 16.1862 13.6326C16.1466 13.7046 16.1218 13.7844 16.1136 13.8669C16.1042 13.9602 16.1239 14.0577 16.1633 14.2528L17.2261 19.507C17.3596 20.1666 17.4263 20.4964 17.332 20.6855C17.25 20.8498 17.0996 20.9644 16.9253 20.9953C16.7247 21.0309 16.4462 20.8625 15.8891 20.5256L11.452 17.842C11.2874 17.7424 11.205 17.6927 11.1175 17.6731C11.04 17.656 10.96 17.656 10.8825 17.6731C10.795 17.6927 10.7127 17.7424 10.548 17.842L6.11095 20.5256C5.5539 20.8625 5.27537 21.0309 5.07474 20.9953C4.90046 20.9644 4.75 20.8498 4.66808 20.6855C4.57378 20.4964 4.64049 20.1666 4.77392 19.507L5.83669 14.2528C5.87613 14.0577 5.89586 13.9602 5.88649 13.8669C5.8782 13.7844 5.85347 13.7046 5.81389 13.6326C5.76916 13.5513 5.69855 13.4846 5.55734 13.3512L1.75231 9.75542C1.27461 9.30396 1.03575 9.07829 1.00605 8.86721C0.98027 8.68383 1.03773 8.49836 1.16138 8.36591C1.30374 8.21342 1.6235 8.17804 2.26302 8.10727L7.35689 7.5435C7.54596 7.52258 7.64048 7.51212 7.72222 7.47394C7.79454 7.44016 7.85929 7.39082 7.91229 7.32913C7.97217 7.25941 8.01087 7.16838 8.08828 6.9863L10.1737 2.08049Z" fill="black" stroke="black" stroke-width="1.088" stroke-linecap="round" stroke-linejoin="round"/>
</g>
</svg>
