<svg width="25" height="25" viewBox="0 0 25 25" fill="none" xmlns="http://www.w3.org/2000/svg">
<path id="Vector" fill-rule="evenodd" clip-rule="evenodd" d="M21.3441 1.67099C21.7401 1.56036 22.0163 1.45159 22.2425 1.33735C22.5596 1.17724 22.8224 0.985446 23.2377 0.662431C23.5867 0.390954 24.034 0.367314 24.4022 0.600873C24.7703 0.834433 25 1.28746 25 1.7803C25 3.22806 24.8469 4.41466 24.4926 5.45893C24.1944 6.3373 23.7756 7.05073 23.2746 7.70007C23.063 12.2045 21.9567 15.7419 20.2655 18.4219C18.5125 21.1996 16.1803 22.9784 13.7217 23.9746C11.2704 24.9678 8.68032 25.1897 6.35995 24.8534C4.0548 24.5194 1.92399 23.6198 0.438779 22.2584C0.0320527 21.8855 -0.110921 21.2367 0.0904388 20.6777C0.291802 20.1186 0.787084 19.7892 1.29717 19.8752C2.7585 20.1213 4.16519 19.7296 5.32189 19.1698C5.09418 19.0238 4.87949 18.8658 4.67993 18.7029C3.62593 17.8429 2.77553 16.6753 2.39277 15.773C2.23437 15.3997 2.23274 14.9606 2.38835 14.5857C2.46862 14.3921 2.58601 14.2272 2.72853 14.1015C1.18959 12.6045 0.568255 10.5339 0.568255 9.14683C0.568255 8.73438 0.729482 8.34494 1.0053 8.09113C1.12128 7.9844 1.25207 7.90666 1.38995 7.85983C1.27479 7.46239 1.18542 7.06083 1.11731 6.67208C0.8153 4.9485 0.842107 3.00311 1.17037 1.45546C1.2827 0.925844 1.65649 0.529592 2.11518 0.453864C2.57386 0.378149 3.02564 0.638121 3.2571 1.11099C4.48154 3.6125 6.74002 5.14154 8.84194 6.04729C9.83017 6.47313 10.7454 6.74448 11.4314 6.91131C11.5795 5.27649 11.9667 3.9283 12.5612 2.85748C13.3454 1.44473 14.4391 0.608869 15.6137 0.236163C17.6395 -0.406601 19.8873 0.325686 21.3441 1.67099ZM11.0778 9.56015C10.2993 9.37588 9.22927 9.06633 8.06156 8.56316C6.51927 7.89858 4.72834 6.86229 3.22817 5.2571C3.25502 5.55248 3.29313 5.84536 3.34306 6.1303C3.59448 7.56521 4.06166 8.36883 4.48554 8.61862C5.00396 8.92415 5.2442 9.64058 5.0431 10.2813C4.77083 11.1488 4.05472 11.22 3.40406 11.0283C3.92738 11.953 4.86799 12.875 6.43687 13.1832C6.97798 13.2896 7.37742 13.8363 7.38627 14.4828C7.39512 15.1293 7.01085 15.6909 6.47292 15.8178L5.48376 16.0509C5.63508 16.2059 5.79893 16.3579 5.97359 16.5004C6.76554 17.1467 7.5607 17.4254 8.24717 17.2232C8.76132 17.0717 9.29604 17.3591 9.536 17.9161C9.77594 18.4731 9.65739 19.1516 9.25026 19.5514C8.51853 20.2693 7.66398 20.8453 6.80753 21.3234C6.40546 21.5478 5.95613 21.7694 5.46814 21.9644C5.84345 22.0588 6.234 22.1362 6.63731 22.1948C8.64933 22.4863 10.8888 22.2897 12.9829 21.4414C15.0698 20.5958 16.9988 19.1099 18.442 16.8232C19.883 14.5396 20.8887 11.3793 21.0235 7.08829C21.0341 6.75044 21.1527 6.42982 21.3556 6.19077C21.8665 5.58853 22.2888 4.89823 22.4965 4.07657C22.133 4.21014 21.7236 4.32575 21.2361 4.43561C20.8663 4.51895 20.4855 4.38095 20.2192 4.06715C19.3505 3.04316 17.6323 2.36978 16.2045 2.82281C15.5325 3.03602 14.9217 3.4976 14.463 4.32403C13.9947 5.1678 13.6364 6.48227 13.6364 8.4772C13.6364 8.85621 13.5002 9.21747 13.2615 9.47143C12.6956 10.0735 11.7432 9.71763 11.0778 9.56015Z" fill="rgba(255, 199, 0)"/>
</svg>
